<?xml version="1.0" encoding="utf-8" ?>
<svg baseProfile="full" height="1024" version="1.1" width="1024" xmlns="http://www.w3.org/2000/svg" xmlns:ev="http://www.w3.org/2001/xml-events" xmlns:xlink="http://www.w3.org/1999/xlink"><defs /><path d="M 187,207 188,784 344,783 345,576 447,577 582,784 859,784 633,514 612,516 516,401 506,400 468,445 443,451 402,492 344,492 345,322 515,322 552,332 580,363 584,404 564,441 615,503 636,502 666,524 714,461 729,396 715,310 670,249 623,221 571,208 Z M 511,426 625,564 628,562 629,545 635,548 779,721 730,690 666,635 664,640 674,683 672,685 585,577 583,579 587,600 602,645 600,648 514,572 519,571 552,582 557,580 494,501 510,495 536,510 526,488 Z" fill="black" fill-rule="evenodd" stroke="none" /></svg>